<?xml version="1.0" standalone="no"?>
<!DOCTYPE svg PUBLIC "-//W3C//DTD SVG 20010904//EN"
 "http://www.w3.org/TR/2001/REC-SVG-20010904/DTD/svg10.dtd">
<svg version="1.0" xmlns="http://www.w3.org/2000/svg"
 width="660.000000pt" height="660.000000pt" viewBox="0 0 660.000000 660.000000"
 preserveAspectRatio="xMidYMid meet">

<g transform="translate(0.000000,660.000000) scale(0.100000,-0.100000)"
fill="#000000" stroke="none">
<path d="M0 3295 l0 -3295 3300 0 3300 0 0 3295 0 3295 -3300 0 -3300 0 0
-3295z m3585 2674 c515 -52 1033 -270 1427 -599 739 -616 1096 -1548 952
-2485 -90 -585 -360 -1104 -796 -1531 -397 -389 -921 -645 -1490 -730 -144
-21 -456 -29 -608 -15 -954 87 -1779 656 -2195 1516 -139 289 -217 565 -256
915 -15 134 -6 499 15 635 93 584 335 1074 736 1489 182 188 423 373 625 481
39 21 75 41 80 45 22 16 265 119 350 148 377 128 763 172 1160 131z"/>
<path d="M2117 4486 c-46 -35 -148 -113 -225 -172 -77 -60 -183 -142 -236
-183 l-96 -73 0 -192 c0 -164 3 -197 19 -231 23 -52 71 -93 127 -107 l44 -12
0 -738 0 -738 65 0 65 0 0 565 0 565 833 -2 832 -3 3 -562 2 -563 650 0 650 0
2 736 3 737 48 14 c64 18 120 75 135 136 17 68 16 382 -2 399 -7 7 -86 69
-176 138 -90 69 -229 176 -309 237 l-146 113 -116 0 c-64 0 -118 -3 -122 -6
-3 -3 104 -114 239 -247 l244 -240 0 -196 c0 -221 -5 -240 -73 -295 -31 -25
-49 -31 -101 -34 -79 -5 -134 20 -173 80 -28 41 -28 42 -31 246 l-4 205 -91
126 c-51 69 -130 179 -176 244 l-84 117 -125 0 c-114 0 -124 -1 -119 -17 3
-10 51 -123 106 -251 l101 -232 0 -183 c-1 -235 -13 -273 -104 -319 -58 -30
-150 -22 -201 16 -66 51 -75 85 -75 298 0 161 -5 220 -35 425 -19 131 -37 244
-40 251 -3 9 -35 12 -127 10 l-123 -3 -28 -185 c-21 -145 -29 -242 -35 -446
l-8 -260 -33 -47 c-52 -72 -151 -98 -237 -62 -39 16 -49 25 -84 75 -24 34 -25
42 -29 225 l-3 190 40 95 c22 52 59 138 82 190 63 143 90 208 90 220 0 6 -45
10 -120 10 l-120 0 -53 -72 c-30 -40 -111 -152 -180 -248 l-127 -175 0 -192
c0 -199 -5 -231 -43 -271 -84 -91 -238 -80 -304 20 -28 41 -28 43 -31 240 l-4
199 246 240 c135 133 246 245 246 250 0 5 -53 9 -119 9 l-119 0 -85 -64z
m2593 -1771 l0 -455 -505 0 -505 0 0 455 0 455 505 0 505 0 0 -455z"/>
<path d="M1944 3105 c-2 -5 -3 -233 -2 -505 l3 -495 358 -3 357 -2 0 507 0
508 -356 0 c-229 0 -358 -4 -360 -10z"/>
<path d="M2777 3112 c-16 -3 -17 -44 -17 -508 l0 -504 360 0 360 0 0 505 c0
397 -3 505 -12 505 -284 3 -679 4 -691 2z"/>
</g>
</svg>
